<svg width="32" height="32" viewBox="0 0 32 32" fill="none" xmlns="http://www.w3.org/2000/svg">
<path d="M22.4698 20.83L22.8598 23.99C22.9598 24.82 22.0698 25.4 21.3598 24.97L17.1698 22.48C16.7098 22.48 16.2599 22.45 15.8199 22.39C16.5599 21.52 16.9998 20.42 16.9998 19.23C16.9998 16.39 14.5398 14.09 11.4998 14.09C10.3398 14.09 9.26985 14.42 8.37985 15C8.34985 14.75 8.33984 14.5 8.33984 14.24C8.33984 9.68999 12.2898 6 17.1698 6C22.0498 6 25.9998 9.68999 25.9998 14.24C25.9998 16.94 24.6098 19.33 22.4698 20.83Z" stroke="#3B4252" stroke-width="1.5" stroke-linecap="round" stroke-linejoin="round"/>
<path d="M17 19.23C17 20.42 16.56 21.5201 15.82 22.3901C14.83 23.5901 13.26 24.36 11.5 24.36L8.89 25.91C8.45 26.18 7.89 25.81 7.95 25.3L8.2 23.3301C6.86 22.4001 6 20.91 6 19.23C6 17.47 6.94 15.9201 8.38 15.0001C9.27 14.4201 10.34 14.0901 11.5 14.0901C14.54 14.0901 17 16.39 17 19.23Z" stroke="#3B4252" stroke-width="1.5" stroke-linecap="round" stroke-linejoin="round"/>
</svg>
