<svg width="32" height="32" viewBox="0 0 32 32" fill="none" xmlns="http://www.w3.org/2000/svg">
<path d="M22.1399 25.6208C21.2599 25.8808 20.2199 26.0009 18.9999 26.0009H12.9999C11.7799 26.0009 10.7399 25.8808 9.85986 25.6208C10.0799 23.0208 12.7499 20.9708 15.9999 20.9708C19.2499 20.9708 21.9199 23.0208 22.1399 25.6208Z" stroke="#3B4252" stroke-width="1.5" stroke-linecap="round" stroke-linejoin="round"/>
<path d="M19 6.00085H13C8 6.00085 6 8.00085 6 13.0009V19.0009C6 22.7809 7.14 24.8508 9.86 25.6208C10.08 23.0208 12.75 20.9708 16 20.9708C19.25 20.9708 21.92 23.0208 22.14 25.6208C24.86 24.8508 26 22.7809 26 19.0009V13.0009C26 8.00085 24 6.00085 19 6.00085ZM16 18.1708C14.02 18.1708 12.42 16.5609 12.42 14.5809C12.42 12.6009 14.02 11.0009 16 11.0009C17.98 11.0009 19.58 12.6009 19.58 14.5809C19.58 16.5609 17.98 18.1708 16 18.1708Z" stroke="#3B4252" stroke-width="1.5" stroke-linecap="round" stroke-linejoin="round"/>
<path d="M19.5799 14.5809C19.5799 16.5609 17.9799 18.1708 15.9999 18.1708C14.0199 18.1708 12.4199 16.5609 12.4199 14.5809C12.4199 12.6009 14.0199 11.0009 15.9999 11.0009C17.9799 11.0009 19.5799 12.6009 19.5799 14.5809Z" stroke="#3B4252" stroke-width="1.5" stroke-linecap="round" stroke-linejoin="round"/>
</svg>
