<svg id="Layer_1" data-name="Layer 1" xmlns="http://www.w3.org/2000/svg" viewBox="0 0 512 512"><defs><style>.cls-1{fill:#2e3440;}.cls-2{fill:#32e0c4;}</style></defs><path class="cls-1" d="M451,512H61A61,61,0,0,1,0,451V61A61,61,0,0,1,61,0H451a61,61,0,0,1,61,61V451A61,61,0,0,1,451,512Z"/><path class="cls-2" d="M167.87,179.13A76.87,76.87,0,1,0,244.73,256,76.87,76.87,0,0,0,167.87,179.13Zm0,128.88a52,52,0,1,1,52-52A52,52,0,0,1,167.87,308Z"/><path class="cls-2" d="M280.11,179.13V204a52,52,0,0,1,0,104v24.86a76.87,76.87,0,0,0,0-153.74Z"/><path class="cls-2" d="M396.15,257.87a51.76,51.76,0,0,1-3.64,19.1l22.16,11.46a76.89,76.89,0,0,0-1.77-64.9l-21,13.68A51.74,51.74,0,0,1,396.15,257.87Z"/></svg>