<svg width="22" height="26" viewBox="0 0 22 26" fill="none" xmlns="http://www.w3.org/2000/svg">
<path d="M20.6364 10.8182C20.6364 18.4545 10.8182 25 10.8182 25C10.8182 25 1 18.4545 1 10.8182C1 8.21424 2.03441 5.71695 3.87568 3.87568C5.71695 2.03441 8.21424 1 10.8182 1C13.4221 1 15.9194 2.03441 17.7607 3.87568C19.602 5.71695 20.6364 8.21424 20.6364 10.8182Z" stroke="#7B88A1" stroke-width="2" stroke-linecap="round" stroke-linejoin="round"/>
<path d="M10.8181 14.0909C12.6256 14.0909 14.0909 12.6256 14.0909 10.8182C14.0909 9.01069 12.6256 7.54544 10.8181 7.54544C9.01066 7.54544 7.54541 9.01069 7.54541 10.8182C7.54541 12.6256 9.01066 14.0909 10.8181 14.0909Z" stroke="#7B88A1" stroke-width="2" stroke-linecap="round" stroke-linejoin="round"/>
</svg>
